<?xml version="1.0" encoding="UTF-8" standalone="no"?>
<!-- Created with Inkscape (http://www.inkscape.org/) -->

<svg
   xmlns:dc="http://purl.org/dc/elements/1.1/"
   xmlns:cc="http://creativecommons.org/ns#"
   xmlns:rdf="http://www.w3.org/1999/02/22-rdf-syntax-ns#"
   xmlns:svg="http://www.w3.org/2000/svg"
   xmlns="http://www.w3.org/2000/svg"
   xmlns:sodipodi="http://sodipodi.sourceforge.net/DTD/sodipodi-0.dtd"
   xmlns:inkscape="http://www.inkscape.org/namespaces/inkscape"
   width="500mm"
   height="200mm"
   viewBox="0 0 500 200"
   version="1.1"
   id="svg8"
   inkscape:version="0.92.3 (2405546, 2018-03-11)"
   sodipodi:docname="details2.svg">
  <defs
     id="defs2" />
  <sodipodi:namedview
     id="base"
     pagecolor="#ffffff"
     bordercolor="#666666"
     borderopacity="1.0"
     inkscape:pageopacity="0.0"
     inkscape:pageshadow="2"
     inkscape:zoom="0.23579016"
     inkscape:cx="-1521.7963"
     inkscape:cy="751.44659"
     inkscape:document-units="mm"
     inkscape:current-layer="layer2"
     showgrid="true"
     inkscape:window-width="3200"
     inkscape:window-height="1675"
     inkscape:window-x="-13"
     inkscape:window-y="-13"
     inkscape:window-maximized="1">
    <inkscape:grid
       type="xygrid"
       id="grid3729"
       visible="false" />
  </sodipodi:namedview>
  <metadata
     id="metadata5">
    <rdf:RDF>
      <cc:Work
         rdf:about="">
        <dc:format>image/svg+xml</dc:format>
        <dc:type
           rdf:resource="http://purl.org/dc/dcmitype/StillImage" />
        <dc:title />
      </cc:Work>
    </rdf:RDF>
  </metadata>
  <g
     inkscape:label="Layer 1"
     inkscape:groupmode="layer"
     id="layer1"
     transform="translate(0,-97)">
    <path
       style="fill:#666666;stroke-width:0.29323405"
       d="m 374.98635,107.00674 a 69.205745,69.205745 0 0 0 -69.20553,69.20611 69.205745,69.205745 0 0 0 69.20553,69.20553 69.205745,69.205745 0 0 0 33.50888,-8.74376 l 54.14521,54.14579 c 2.17078,2.17078 5.66636,2.17078 7.83714,0 l 17.0448,-17.0448 c 2.17078,-2.17078 2.17078,-5.66636 0,-7.83714 l -53.60571,-53.60514 a 69.205745,69.205745 0 0 0 10.2758,-36.12048 69.205745,69.205745 0 0 0 -69.20612,-69.20611 z m 0.30412,22.63114 a 46.854851,46.26243 0 0 1 46.85446,46.26226 46.854851,46.26243 0 0 1 -46.85446,46.26226 46.854851,46.26243 0 0 1 -46.85503,-46.26226 46.854851,46.26243 0 0 1 46.85503,-46.26226 z"
       id="path4820"
       inkscape:connector-curvature="0" />
  </g>
  <g
     inkscape:groupmode="layer"
     id="layer2"
     inkscape:label="Layer 2"
     style="display:inline">
    <rect
       id="rect3774"
       width="264.58331"
       height="29.531528"
       x="21.166666"
       y="20.083334"
       style="fill:#666666;fill-opacity:1;stroke-width:0.25517231"
       mask="none" />
    <ellipse
       style="fill:#808080;fill-opacity:0;stroke-width:0.26458332"
       id="path3812"
       cx="259.29166"
       cy="99.458336"
       rx="47.625"
       ry="58.208332" />
    <rect
       id="rect3774-0-1"
       width="285.75"
       height="29.531528"
       x="21.166666"
       y="147.08333"
       style="display:inline;fill:#666666;fill-opacity:1;stroke-width:0.26518282"
       mask="none" />
    <rect
       id="rect3774-0"
       width="264.58334"
       height="30.691671"
       x="21.166666"
       y="83.583336"
       style="display:inline;fill:#666666;fill-opacity:1;stroke-width:0.26013622"
       mask="none" />
  </g>
  <g
     inkscape:groupmode="layer"
     id="layer3"
     inkscape:label="Layer 3" />
</svg>
