<svg version="1.1" viewBox="0.0 0.0 132.49343832020998 124.64041994750656" fill="none" stroke="none" stroke-linecap="square" stroke-miterlimit="10" xmlns:xlink="http://www.w3.org/1999/xlink" xmlns="http://www.w3.org/2000/svg"><clipPath id="p.0"><path d="m0 0l132.49344 0l0 124.64042l-132.49344 0l0 -124.64042z" clip-rule="nonzero"/></clipPath><g clip-path="url(#p.0)"><path fill="#000000" fill-opacity="0.0" d="m0 0l132.49344 0l0 124.64042l-132.49344 0z" fill-rule="evenodd"/><path fill="#666666" d="m2.1259842E-5 62.28344l0 0c0 -34.39821 29.47165 -62.283466 65.82677 -62.283466l0 0c17.458351 0 34.201645 6.561989 46.546562 18.242405c12.34491 11.680416 19.280212 27.522457 19.280212 44.04106l0 0c0 34.39821 -29.47165 62.283463 -65.826775 62.283463l0 0c-36.355118 0 -65.82677 -27.885254 -65.82677 -62.283463z" fill-rule="evenodd"/><path fill="#000000" fill-opacity="0.0" d="m66.024284 52.770954l-0.40944672 55.748028" fill-rule="evenodd"/><path stroke="#ffffff" stroke-width="24.0" stroke-linejoin="round" stroke-linecap="butt" d="m66.024284 52.770954l-0.40944672 55.748028" fill-rule="evenodd"/><path fill="#ffffff" d="m52.330708 29.543322l0 0c0 -7.4536686 6.0423927 -13.496063 13.496067 -13.496063l0 0c3.5793762 0 7.0121536 1.4219036 9.543152 3.9529057c2.5310059 2.531004 3.9529114 5.9637794 3.9529114 9.543158l0 0c0 7.4536686 -6.0423965 13.496065 -13.496063 13.496065l0 0c-7.4536743 0 -13.496067 -6.0423965 -13.496067 -13.496065z" fill-rule="evenodd"/></g></svg>