<?xml version="1.0" encoding="UTF-8" standalone="no"?>
<!-- Created with Inkscape (http://www.inkscape.org/) -->

<svg
   width="40"
   height="40"
   viewBox="0 0 10.583333 10.583334"
   version="1.1"
   id="svg5"
   inkscape:version="1.1 (c4e8f9e, 2021-05-24)"
   sodipodi:docname="help_blue.svg"
   xmlns:inkscape="http://www.inkscape.org/namespaces/inkscape"
   xmlns:sodipodi="http://sodipodi.sourceforge.net/DTD/sodipodi-0.dtd"
   xmlns="http://www.w3.org/2000/svg"
   xmlns:svg="http://www.w3.org/2000/svg">
  <sodipodi:namedview
     id="namedview7"
     pagecolor="#ffffff"
     bordercolor="#666666"
     borderopacity="1.0"
     inkscape:pageshadow="2"
     inkscape:pageopacity="0.0"
     inkscape:pagecheckerboard="0"
     inkscape:document-units="mm"
     showgrid="false"
     units="px"
     inkscape:zoom="11.060831"
     inkscape:cx="8.5436619"
     inkscape:cy="34.491079"
     inkscape:window-width="1312"
     inkscape:window-height="1009"
     inkscape:window-x="0"
     inkscape:window-y="25"
     inkscape:window-maximized="0"
     inkscape:current-layer="layer3" />
  <defs
     id="defs2">
    <style
       id="style187">.cls-1{fill:#b1b1b1;}</style>
  </defs>
  <g
     inkscape:groupmode="layer"
     id="layer2"
     inkscape:label="Layer 2"
     style="display:inline">
    <g
       inkscape:groupmode="layer"
       id="layer3"
       inkscape:label="Layer 3"
       style="display:inline">
      <path
         style="fill:none;stroke:#3333AA;stroke-width:1.32292;stroke-linecap:round;stroke-linejoin:round;stroke-miterlimit:4;stroke-dasharray:none;stroke-opacity:1"
         d="m 2.9275351,3.5008388 c 0,-1.1569412 1.2782235,-2.0178926 2.2894771,-2.0178926 2.1147027,0 2.4493067,1.6264165 2.4493067,2.3470831 0,1.9770205 -2.644784,1.3935228 -2.644784,3.1128739"
         id="path3772"
         sodipodi:nodetypes="cccc" />
      <ellipse
         style="fill:#3333AA;fill-opacity:1;stroke-width:1.52476;stroke-linecap:round;stroke-linejoin:round;stroke-miterlimit:4;stroke-dasharray:none"
         id="path6691"
         cx="5.0086131"
         cy="8.9757385"
         rx="0.82007784"
         ry="0.79472321" />
      <ellipse
         style="fill:#3333AA;fill-opacity:1;stroke:#3333AA;stroke-width:2.05173"
         id="path1875"
         cx="5.2864852"
         cy="5.2984452"
         rx="4.2015443"
         ry="4.2135048" />
      <path
         style="fill:#ffffff;fill-opacity:1;stroke:#3333AA;stroke-width:0.0904091"
         d="m 18.295054,28.606289 c -0.58253,-0.168795 -1.146671,-0.655753 -1.466202,-1.265601 -0.302978,-0.578255 -0.30357,-0.581876 -0.257308,-1.574089 0.11015,-2.362506 1.196839,-4.187715 3.363667,-5.649639 0.348075,-0.23484 1.568598,-0.899087 2.712274,-1.476106 2.198003,-1.108958 2.791085,-1.494135 3.272521,-2.125342 0.467938,-0.613507 0.602323,-1.221344 0.542186,-2.452354 -0.06008,-1.229896 -0.214048,-1.853707 -0.71517,-2.897632 -0.949988,-1.9789887 -3.001804,-3.0718186 -5.766606,-3.0713857 -1.520591,2.351e-4 -2.602108,0.3361538 -3.943879,1.2249562 -1.49472,0.9901165 -2.332308,2.2400225 -2.488821,3.7139885 -0.102735,0.967504 -0.38733,1.613621 -0.90649,2.058003 C 11.645053,15.943775 10.299374,15.871327 9.3414865,14.91344 8.5579099,14.129863 8.4303585,13.264749 8.8231196,11.397628 9.8095479,6.708311 15.2844,2.8403907 20.477666,3.1638251 c 4.633444,0.2885689 7.872424,2.2408234 9.67566,5.8318824 0.93952,1.8710085 1.437044,4.4879635 1.220361,6.4190475 -0.303854,2.70797 -1.510756,4.614249 -3.934519,6.214501 -0.29835,0.196981 -1.486766,0.834661 -2.640925,1.417068 -2.140496,1.080127 -2.851926,1.565374 -3.155385,2.1522 -0.07603,0.147013 -0.173177,0.606067 -0.215896,1.020121 -0.08952,0.867661 -0.235236,1.204716 -0.752777,1.74124 -0.601075,0.623122 -1.560174,0.883707 -2.379131,0.646404 z"
         id="path1951"
         transform="scale(0.26458333)" />
      <path
         style="fill:#ffffff;fill-opacity:1;stroke:#3333AA;stroke-width:0.0904091"
         d="m 17.852247,36.683685 c -1.291139,-0.560028 -1.940323,-1.498196 -1.940171,-2.803837 9.3e-5,-0.786381 0.335654,-1.52939 0.942316,-2.086496 0.64442,-0.591781 1.123494,-0.774511 2.042724,-0.779143 0.692034,-0.0035 0.831295,0.02624 1.37398,0.293271 2.246088,1.105212 2.260749,4.090646 0.02575,5.243724 -0.598408,0.30873 -1.878341,0.378094 -2.4446,0.132481 z"
         id="path1990"
         transform="scale(0.26458333)" />
      <path
         style="fill:#ffffff;fill-opacity:0;stroke:#3333AA;stroke-width:0.0904091"
         d="m 17.991415,36.611198 c -0.493012,-0.154523 -1.23101,-0.701277 -1.514617,-1.122122 -0.748757,-1.11108 -0.562297,-2.617375 0.444699,-3.592448 0.588669,-0.570008 1.055482,-0.746331 1.982171,-0.748701 0.686328,-0.0018 0.840519,0.02994 1.325978,0.272523 1.032496,0.515944 1.597493,1.391802 1.60171,2.48297 0.0026,0.662974 -0.109166,1.03671 -0.480396,1.606938 -0.635714,0.976491 -2.161323,1.476395 -3.359545,1.10084 z"
         id="path20178"
         transform="scale(0.26458333)" />
      <path
         style="fill:#ffffff;fill-opacity:0;stroke:#3333AA;stroke-width:0.0904091"
         d="m 18.202247,36.579698 c -0.719834,-0.185349 -1.615568,-0.947965 -1.907422,-1.623955 -0.08163,-0.18907 -0.144367,-0.598274 -0.147475,-0.961914 -0.0066,-0.773868 0.230643,-1.355982 0.786083,-1.928654 0.564054,-0.581552 0.975268,-0.762611 1.839832,-0.810082 0.645396,-0.03544 0.797929,-0.01239 1.231373,0.186046 1.131702,0.51811 1.691163,1.348488 1.692668,2.512337 0.0015,1.132038 -0.515964,1.914903 -1.590902,2.407026 -0.511368,0.234112 -1.433826,0.340301 -1.904157,0.219196 z"
         id="path20217"
         transform="scale(0.26458333)" />
      <path
         style="fill:#ffffff;fill-opacity:0;stroke:#3333AA;stroke-width:0.0904091"
         d="m 18.199615,28.465794 c -0.482463,-0.170905 -1.041121,-0.711372 -1.335217,-1.291742 -0.254673,-0.502573 -0.28636,-0.978971 -0.135705,-2.040317 0.224499,-1.581581 0.797353,-2.680568 2.026429,-3.887592 0.923663,-0.90709 1.32202,-1.16072 4.098423,-2.609434 2.068735,-1.079456 2.462417,-1.328886 2.951014,-1.869703 0.620684,-0.687023 0.730643,-1.051855 0.720924,-2.391956 -0.01022,-1.408699 -0.164502,-2.131421 -0.685165,-3.209524 C 25.142482,9.7205648 23.734624,8.6278087 22.059825,8.2311695 21.177844,8.0222916 19.771801,7.9580308 18.893487,8.0864573 c -1.398153,0.2044371 -2.766306,0.8899943 -3.862374,1.9353677 -0.925578,0.882768 -1.373089,1.721125 -1.560323,2.923077 -0.141678,0.909501 -0.328825,1.40467 -0.690654,1.827386 -0.90636,1.058878 -2.317804,1.081179 -3.3461137,0.05287 C 8.762817,14.153952 8.6111796,13.613756 8.75883,12.419836 8.901952,11.262535 9.1333432,10.477666 9.6252601,9.4809432 11.053975,6.5860781 14.174191,4.2588438 17.674983,3.4770031 c 2.575252,-0.5751377 6.242423,0.020365 8.520924,1.3836905 2.953094,1.7669645 4.708793,4.7668491 5.079479,8.6790834 0.160389,1.692758 -0.09597,3.161391 -0.808619,4.632456 -0.515875,1.064875 -1.183481,1.899204 -2.127102,2.658308 -0.810146,0.651728 -1.346586,0.970823 -3.64226,2.166548 -2.876383,1.498194 -3.148324,1.758613 -3.363872,3.221333 -0.129379,0.877979 -0.308618,1.249112 -0.839661,1.73861 -0.646135,0.595586 -1.508993,0.786929 -2.294257,0.508762 z"
         id="path20313"
         transform="scale(0.26458333)" />
    </g>
  </g>
</svg>
