<?xml version="1.0" encoding="utf-8"?>
<!-- Generator: Adobe Illustrator 22.0.1, SVG Export Plug-In . SVG Version: 6.00 Build 0)  -->
<svg version="1.1" xmlns="http://www.w3.org/2000/svg" xmlns:xlink="http://www.w3.org/1999/xlink" x="0px" y="0px"
	 viewBox="0 0 612 792" style="enable-background:new 0 0 612 792;" xml:space="preserve">
<style type="text/css">
	.st0{display:none;}
	.st1{fill:url(#SVGID_1_);}
	.st2{filter:url(#Adobe_OpacityMaskFilter);}
	.st3{fill:url(#SVGID_3_);}
	.st4{opacity:0.57;mask:url(#SVGID_2_);fill:#FFFFFF;}
	.st5{fill:#FFFFFF;}
	.st6{font-family:'ArialMT';}
	.st7{font-size:105.0488px;}
	.st8{display:inline;}
</style>
<g id="Layer_1" class="st0">
</g>
<g id="Layer_2" class="st0">
</g>
<g id="Layer_3">
	<g>
		<g>
			<g>
				<g>
					<radialGradient id="SVGID_1_" cx="313.466" cy="388.1548" r="200.2238" gradientUnits="userSpaceOnUse">
						<stop  offset="0" style="stop-color:#CD2D32"/>
						<stop  offset="0.5169" style="stop-color:#CD2027"/>
						<stop  offset="0.6452" style="stop-color:#B51C22"/>
						<stop  offset="0.8785" style="stop-color:#8D1619"/>
						<stop  offset="1" style="stop-color:#7E1416"/>
					</radialGradient>
					<path class="st1" d="M513.7,388.2c0,110.6-89.7,200.2-200.3,200.2c-110.5,0-200.2-89.6-200.2-200.2
						c0-110.6,89.7-200.2,200.2-200.2C424,187.9,513.7,277.6,513.7,388.2z"/>
				</g>
			</g>
			<defs>
				<filter id="Adobe_OpacityMaskFilter" filterUnits="userSpaceOnUse" x="149.4" y="193" width="332.3" height="157.1">
					<feFlood  style="flood-color:white;flood-opacity:1" result="back"/>
					<feBlend  in="SourceGraphic" in2="back" mode="normal"/>
				</filter>
			</defs>
			<mask maskUnits="userSpaceOnUse" x="149.4" y="193" width="332.3" height="157.1" id="SVGID_2_">
				<g class="st2">
					<linearGradient id="SVGID_3_" gradientUnits="userSpaceOnUse" x1="315.5166" y1="192.9663" x2="315.5166" y2="350.1075">
						<stop  offset="0" style="stop-color:#FFFFFF"/>
						<stop  offset="1" style="stop-color:#000000"/>
					</linearGradient>
					<path class="st3" d="M481.7,339.8c0,21.9-111.4,5.2-166.2-15.5c-62.8-23.6-166.2,39.3-166.2,16.8
						c0-70.8,74.4-148.1,166.2-148.1C407.3,193,481.7,293.4,481.7,339.8z"/>
				</g>
			</mask>
			<path class="st4" d="M481.7,339.8c0,21.9-111.4,5.2-166.2-15.5c-62.8-23.6-166.2,39.3-166.2,16.8c0-70.8,74.4-148.1,166.2-148.1
				C407.3,193,481.7,293.4,481.7,339.8z"/>
		</g>
		<path class="st5" d="M413.3,387c0,21.3-17.3,38.6-38.6,38.6c-21.3,0-38.6-17.3-38.6-38.6c0-21.3,17.3-38.6,38.6-38.6
			C396,348.4,413.3,365.7,413.3,387z"/>
		<text transform="matrix(1 0 0 1 131.6353 425.2793)" class="st5 st6 st7">VISI</text>
		<text transform="matrix(1 0 0 1 420.5063 424.1904)" class="st5 st6 st7">N</text>
	</g>
	<g class="st0">
		<path class="st8" d="M441,565.3v-8.4h-2.9v-1.1h6.9v1.1h-2.9v8.4H441z"/>
		<path class="st8" d="M446.1,565.3v-9.5h1.7l2.1,6.7c0.2,0.6,0.3,1.1,0.4,1.4c0.1-0.3,0.3-0.9,0.5-1.5l2.1-6.6h1.6v9.5h-1.1v-8
			l-2.5,8h-1l-2.5-8.1v8.1H446.1z"/>
	</g>
</g>
</svg>
