<?xml version="1.0" encoding="UTF-8" standalone="no"?>
<!-- Created with Inkscape (http://www.inkscape.org/) -->

<svg
   xmlns:dc="http://purl.org/dc/elements/1.1/"
   xmlns:cc="http://creativecommons.org/ns#"
   xmlns:rdf="http://www.w3.org/1999/02/22-rdf-syntax-ns#"
   xmlns:svg="http://www.w3.org/2000/svg"
   xmlns="http://www.w3.org/2000/svg"
   xmlns:sodipodi="http://sodipodi.sourceforge.net/DTD/sodipodi-0.dtd"
   xmlns:inkscape="http://www.inkscape.org/namespaces/inkscape"
   width="210mm"
   height="297mm"
   viewBox="0 0 210 297"
   version="1.1"
   id="svg3807"
   inkscape:version="0.92.3 (2405546, 2018-03-11)"
   sodipodi:docname="groupProps.svg">
  <defs
     id="defs3801" />
  <sodipodi:namedview
     id="base"
     pagecolor="#ffffff"
     bordercolor="#666666"
     borderopacity="1.0"
     inkscape:pageopacity="0.0"
     inkscape:pageshadow="2"
     inkscape:zoom="0.35"
     inkscape:cx="-44.285714"
     inkscape:cy="560"
     inkscape:document-units="mm"
     inkscape:current-layer="layer1"
     showgrid="false"
     inkscape:window-width="1853"
     inkscape:window-height="1025"
     inkscape:window-x="67"
     inkscape:window-y="27"
     inkscape:window-maximized="1" />
  <metadata
     id="metadata3804">
    <rdf:RDF>
      <cc:Work
         rdf:about="">
        <dc:format>image/svg+xml</dc:format>
        <dc:type
           rdf:resource="http://purl.org/dc/dcmitype/StillImage" />
        <dc:title></dc:title>
      </cc:Work>
    </rdf:RDF>
  </metadata>
  <g
     inkscape:label="Layer 1"
     inkscape:groupmode="layer"
     id="layer1">
    <path
       inkscape:connector-curvature="0"
       style="fill:#666666;stroke-width:0.30691811"
       d="m 118.60292,117.48744 c -3.21322,0 -5.80027,2.58646 -5.80027,5.79967 v 13.41808 a 62.260537,62.260537 0 0 0 -20.356705,8.725 l -9.694927,-9.6949 c -2.2721,-2.27208 -5.930191,-2.27208 -8.202277,0 l -11.019679,11.01968 c -2.272088,2.27209 -2.272088,5.93018 0,8.20226 l 10.115111,10.11512 a 62.260537,62.260537 0 0 0 -7.843797,19.93709 H 51.080893 c -3.213216,0 -5.800276,2.58646 -5.800276,5.79967 v 15.58449 c 0,3.21322 2.58706,5.79967 5.800276,5.79967 h 15.368685 a 62.260537,62.260537 0 0 0 8.162703,18.96898 l -11.083219,11.08323 c -2.272088,2.27208 -2.272088,5.93018 0,8.20226 l 11.019679,11.01968 c 2.272086,2.2721 5.930177,2.2721 8.202277,0 l 11.32543,-11.3254 a 62.260537,62.260537 0 0 0 18.726202,7.7389 v 16.03468 c 0,3.21321 2.58705,5.79966 5.80027,5.79966 h 15.5839 c 3.21322,0 5.80027,-2.58645 5.80027,-5.79966 v -15.85244 a 62.260537,62.260537 0 0 0 19.07208,-7.57585 l 10.98013,10.98011 c 2.27207,2.2721 5.93018,2.2721 8.20226,0 l 11.01969,-11.01968 c 2.27208,-2.27208 2.27208,-5.93018 0,-8.20226 l -10.57191,-10.57189 a 62.260537,62.260537 0 0 0 8.5158,-19.48032 h 14.50367 c 3.21321,0 5.80027,-2.58645 5.80027,-5.79967 v -15.58449 c 0,-3.21321 -2.58706,-5.79967 -5.80027,-5.79967 h -13.90064 a 62.260537,62.260537 0 0 0 -8.09255,-20.50657 l 9.54563,-9.54564 c 2.27208,-2.27208 2.27208,-5.93017 0,-8.20226 l -11.01969,-11.01968 c -2.27208,-2.27208 -5.93019,-2.27208 -8.20226,0 l -9.36102,9.361 a 62.260537,62.260537 0 0 0 -20.69119,-8.62967 v -13.17951 c 0,-3.21321 -2.58705,-5.79967 -5.80027,-5.79967 z m 8.6183,56.54728 a 24.553451,24.553451 0 0 1 24.55345,24.55345 24.553451,24.553451 0 0 1 -24.55345,24.55345 24.553451,24.553451 0 0 1 -24.55346,-24.55345 24.553451,24.553451 0 0 1 24.55346,-24.55345 z"
       id="path3713" />
    <path
       inkscape:connector-curvature="0"
       id="path4635"
       d="M 201.01815,48.272365 H 16.895818 V 284.45435"
       style="fill:none;stroke:#666666;stroke-width:20.88010025;stroke-linecap:butt;stroke-linejoin:miter;stroke-miterlimit:4;stroke-dasharray:none;stroke-opacity:1" />
    <path
       style="fill:none;stroke:#666666;stroke-width:20.88010025;stroke-linecap:butt;stroke-linejoin:miter;stroke-miterlimit:4;stroke-dasharray:none;stroke-opacity:1"
       d="M 190.31991,38.100216 V 121.34558"
       id="path4637"
       inkscape:connector-curvature="0" />
    <path
       inkscape:connector-curvature="0"
       id="path4639"
       d="M 6.4557672,274.0143 H 54.624769"
       style="fill:none;stroke:#666666;stroke-width:20.88010025;stroke-linecap:butt;stroke-linejoin:miter;stroke-miterlimit:4;stroke-dasharray:none;stroke-opacity:1" />
    <path
       inkscape:connector-curvature="0"
       id="path4639-6"
       d="M 46.188146,82.849323 H 162.75606"
       style="fill:none;stroke:#666666;stroke-width:25.05727959;stroke-linecap:butt;stroke-linejoin:miter;stroke-miterlimit:4;stroke-dasharray:none;stroke-opacity:1" />
    <path
       inkscape:connector-curvature="0"
       id="path4639-7"
       d="M 47.941965,115.73339 H 96.110959"
       style="fill:none;stroke:#666666;stroke-width:15.77607632;stroke-linecap:butt;stroke-linejoin:miter;stroke-miterlimit:4;stroke-dasharray:none;stroke-opacity:1" />
  </g>
</svg>
